<?xml version="1.0" encoding="UTF-8"?><svg xmlns="http://www.w3.org/2000/svg" xmlns:xlink="http://www.w3.org/1999/xlink" width="375" zoomAndPan="magnify" viewBox="0 0 375 374.999991" height="374.999991" preserveAspectRatio="xMidYMid meet" version="1.0"><defs><clipPath id="clip-0"><path d="M 5.410156 39.179688 L 369.578125 39.179688 L 369.578125 335.90625 L 5.410156 335.90625 Z M 5.410156 39.179688 " clip-rule="nonzero"/></clipPath><clipPath id="clip-1"><path d="M 154.117188 187.5 L 221.554688 187.5 L 221.554688 205 L 154.117188 205 Z M 154.117188 187.5 " clip-rule="nonzero"/></clipPath><clipPath id="clip-2"><path d="M 210 229 L 221.554688 229 L 221.554688 237 L 210 237 Z M 210 229 " clip-rule="nonzero"/></clipPath><clipPath id="clip-3"><path d="M 175 212 L 209 212 L 209 252.242188 L 175 252.242188 Z M 175 212 " clip-rule="nonzero"/></clipPath><clipPath id="clip-4"><path d="M 154.117188 208 L 182 208 L 182 237 L 154.117188 237 Z M 154.117188 208 " clip-rule="nonzero"/></clipPath></defs><g clip-path="url(#clip-0)"><path fill="rgb(12.159729%, 15.689087%, 19.999695%)" d="M 368.125 128.9375 C 367.382812 128.34375 366.640625 128.199219 365.75 128.34375 L 335.050781 134.875 L 333.570312 127.160156 C 333.421875 126.417969 332.976562 125.824219 332.234375 125.378906 C 331.640625 124.933594 330.75 124.785156 330.011719 125.082031 L 300.792969 133.984375 C 299.609375 134.28125 298.867188 135.46875 298.867188 136.652344 L 298.867188 151.492188 L 260.011719 183.242188 L 234.800781 152.824219 L 251.558594 142.738281 C 252.449219 142.144531 253.042969 141.105469 252.894531 140.066406 L 250.964844 114.992188 L 272.171875 107.871094 C 273.65625 107.277344 274.398438 105.792969 273.953125 104.3125 L 261.644531 67.367188 C 261.496094 66.625 260.902344 66.03125 260.308594 65.734375 C 259.714844 65.4375 258.972656 65.289062 258.230469 65.585938 L 247.257812 69.296875 L 246.664062 61.582031 C 246.664062 60.542969 245.921875 59.652344 244.886719 59.207031 L 191.496094 39.476562 C 190.902344 39.179688 190.164062 39.179688 189.570312 39.476562 L 136.179688 59.207031 C 135.140625 59.503906 134.550781 60.542969 134.402344 61.582031 L 133.808594 69.742188 L 121.945312 65.734375 C 121.351562 65.4375 120.460938 65.585938 119.867188 65.882812 C 119.273438 66.179688 118.828125 66.773438 118.53125 67.515625 L 105.039062 107.574219 C 104.59375 109.058594 105.332031 110.691406 106.816406 111.136719 L 129.804688 118.851562 L 128.171875 139.917969 C 128.023438 141.105469 128.617188 141.996094 129.507812 142.589844 L 145.375 152.230469 L 114.972656 189.027344 L 76.117188 157.277344 L 76.117188 142.441406 C 76.117188 141.253906 75.378906 140.066406 74.191406 139.769531 L 44.976562 130.867188 C 44.234375 130.71875 43.492188 130.71875 42.75 131.164062 C 42.007812 131.460938 41.5625 132.203125 41.417969 132.945312 L 39.933594 140.660156 L 9.234375 134.132812 C 8.34375 133.984375 7.453125 134.132812 6.863281 134.726562 C 6.269531 135.320312 5.824219 136.0625 5.824219 136.949219 L 5.824219 148.523438 C 5.824219 149.5625 6.417969 150.601562 7.453125 151.046875 L 65.292969 178.34375 L 101.328125 242.140625 C 101.773438 242.882812 102.367188 243.328125 103.109375 243.476562 C 103.851562 243.625 104.742188 243.476562 105.332031 243.03125 L 140.332031 219.738281 L 138.703125 235.167969 L 136.03125 258.460938 L 123.871094 253.566406 C 122.980469 253.121094 121.796875 253.269531 121.054688 254.011719 L 98.511719 273.296875 C 97.621094 274.039062 97.324219 275.226562 97.621094 276.265625 L 107.558594 309.351562 C 107.855469 310.390625 108.746094 311.128906 109.78125 311.277344 L 150.863281 317.363281 L 157.535156 334.128906 C 157.832031 335.164062 158.871094 335.90625 160.058594 335.90625 C 160.058594 335.90625 160.207031 335.90625 160.207031 335.757812 L 182.746094 333.683594 C 183.785156 333.683594 184.824219 332.941406 185.121094 331.902344 L 188.085938 323.59375 L 190.605469 323.148438 L 193.128906 323.445312 L 196.09375 331.902344 C 196.539062 332.792969 197.429688 333.535156 198.46875 333.683594 L 221.007812 335.757812 C 221.15625 335.757812 221.15625 335.757812 221.304688 335.757812 C 222.34375 335.757812 223.382812 335.015625 223.828125 334.128906 L 230.351562 317.214844 L 271.429688 311.128906 C 272.46875 310.980469 273.359375 310.242188 273.65625 309.203125 L 283.59375 276.117188 C 283.886719 275.078125 283.59375 273.890625 282.703125 273.148438 L 260.160156 253.863281 C 259.417969 253.269531 258.230469 252.972656 257.34375 253.417969 L 244.738281 258.460938 L 242.214844 235.910156 C 242.214844 235.613281 242.214844 235.464844 242.214844 235.167969 L 240.4375 217.511719 L 269.503906 236.949219 C 270.246094 237.394531 270.984375 237.542969 271.726562 237.394531 C 272.46875 237.246094 273.0625 236.800781 273.507812 236.058594 L 309.394531 172.410156 L 367.382812 144.960938 C 368.421875 144.515625 369.011719 143.480469 369.011719 142.441406 L 369.011719 130.867188 C 369.160156 130.273438 368.714844 129.53125 368.125 128.9375 Z M 363.824219 140.957031 L 313.992188 164.546875 L 309.988281 166.476562 L 309.101562 166.921875 L 304.503906 156.980469 L 304.503906 138.730469 L 328.824219 131.3125 L 329.863281 136.210938 L 315.476562 140.957031 C 314.289062 141.402344 313.546875 142.441406 313.546875 143.628906 L 313.546875 149.117188 C 313.546875 150.75 314.882812 151.9375 316.367188 151.9375 C 317.847656 151.9375 319.035156 150.75 319.183594 149.117188 L 319.183594 145.703125 L 324.375 144.074219 L 333.570312 140.957031 L 363.824219 134.578125 Z M 257.9375 259.5 L 277.808594 276.414062 L 268.910156 306.085938 L 232.871094 311.425781 L 229.757812 311.871094 L 226.792969 312.316406 L 207.957031 315.136719 L 204.84375 315.582031 L 201.878906 316.027344 L 196.835938 316.769531 L 194.167969 317.214844 L 191.347656 317.660156 L 190.605469 317.808594 L 190.753906 317.363281 C 191.050781 316.769531 191.050781 316.027344 190.753906 315.433594 L 183.636719 297.332031 L 182.449219 294.21875 C 182.449219 294.070312 182.300781 293.773438 182.152344 293.625 L 180.375 291.101562 L 180.078125 290.65625 L 190.902344 286.355469 L 194.90625 284.722656 L 198.617188 283.238281 L 240.734375 266.472656 L 243.402344 265.433594 L 245.921875 264.394531 Z M 200.988281 328.636719 L 199.503906 324.632812 L 198.617188 322.109375 L 200.394531 321.8125 L 202.769531 321.515625 L 205.882812 321.070312 L 224.269531 318.402344 L 219.527344 330.417969 Z M 182.152344 324.632812 L 180.671875 328.636719 L 161.984375 330.417969 L 157.238281 318.402344 L 156.054688 315.285156 L 154.867188 312.464844 L 153.828125 309.945312 L 156.792969 306.828125 C 156.941406 306.679688 157.089844 306.679688 157.238281 306.53125 L 167.621094 297.035156 L 169.695312 295.105469 L 169.84375 294.957031 L 170.882812 294.070312 C 171.328125 293.625 171.625 293.179688 171.625 292.585938 C 171.773438 291.992188 171.625 291.546875 171.476562 290.953125 C 171.328125 290.65625 171.179688 290.359375 170.882812 290.0625 C 170.585938 289.765625 170.4375 289.617188 170.140625 289.46875 C 169.695312 289.171875 169.101562 289.171875 168.511719 289.171875 C 168.511719 289.171875 168.511719 289.171875 168.363281 289.171875 C 167.917969 289.320312 167.324219 289.46875 166.878906 289.914062 L 165.097656 291.546875 L 162.429688 293.921875 L 159.613281 296.441406 L 160.207031 293.476562 L 160.796875 290.65625 L 161.390625 287.984375 L 161.390625 287.6875 L 170.289062 287.6875 L 170.585938 288.132812 L 172.367188 290.359375 L 173.996094 292.734375 L 174.144531 292.882812 L 176.519531 296.144531 L 176.667969 296.441406 L 184.527344 316.472656 L 184.378906 316.769531 L 183.785156 318.402344 L 183.488281 319.289062 L 182.746094 321.367188 L 182.597656 321.960938 Z M 112.601562 306.234375 L 103.703125 276.414062 L 123.574219 259.648438 L 135.4375 264.394531 L 138.109375 265.433594 L 140.777344 266.472656 L 182.894531 283.386719 L 176.074219 286.058594 L 174.144531 283.386719 C 173.699219 282.644531 172.8125 282.199219 171.921875 282.199219 L 159.316406 282.199219 C 158.128906 282.199219 156.941406 283.089844 156.644531 284.425781 L 156.054688 287.09375 L 155.460938 289.765625 L 154.867188 292.585938 L 152.640625 303.117188 L 148.488281 307.273438 C 147.746094 308.015625 147.453125 309.203125 147.894531 310.242188 L 148.488281 311.574219 Z M 238.804688 200.152344 C 238.65625 198.523438 237.171875 197.484375 235.691406 197.632812 C 234.058594 197.78125 233.019531 199.265625 233.167969 200.746094 L 234.207031 211.578125 C 234.207031 211.875 234.058594 212.171875 234.207031 212.46875 L 235.691406 225.820312 L 236.730469 236.058594 C 236.730469 236.355469 236.878906 236.652344 236.878906 236.800781 L 239.546875 260.835938 L 190.753906 280.417969 L 141.667969 260.835938 L 144.335938 236.652344 C 144.335938 236.503906 144.335938 236.503906 144.335938 236.355469 L 144.632812 232.792969 L 146.710938 214.398438 C 146.710938 214.101562 146.710938 213.804688 146.5625 213.507812 L 147.894531 200.894531 C 148.042969 199.265625 146.859375 197.929688 145.375 197.78125 C 143.742188 197.632812 142.410156 198.820312 142.261719 200.300781 L 141.074219 212.617188 L 104.742188 236.800781 L 70.484375 175.96875 L 75.820312 164.546875 C 75.820312 164.398438 75.96875 164.398438 75.96875 164.25 L 113.933594 195.109375 C 115.121094 196 116.753906 195.851562 117.792969 194.664062 L 150.269531 155.199219 L 189.125 178.640625 C 189.570312 178.9375 190.164062 179.085938 190.605469 179.085938 C 191.050781 179.085938 191.496094 179.085938 191.941406 178.789062 L 230.054688 155.792969 L 257.492188 188.878906 C 258.378906 190.066406 260.160156 190.363281 261.347656 189.324219 L 299.015625 158.613281 C 299.015625 158.613281 299.015625 158.761719 299.164062 158.761719 L 304.503906 170.332031 L 270.394531 231.015625 L 239.84375 210.6875 Z M 60.992188 170.183594 L 11.460938 146.742188 L 11.460938 140.363281 L 41.269531 146.59375 L 50.90625 149.710938 L 55.949219 151.34375 L 55.949219 154.753906 C 55.949219 156.386719 57.285156 157.574219 58.765625 157.574219 C 60.398438 157.574219 61.585938 156.386719 61.585938 154.753906 L 61.585938 149.265625 C 61.585938 148.078125 60.84375 147.039062 59.65625 146.59375 L 45.421875 141.996094 L 46.457031 136.949219 L 70.78125 144.367188 L 70.78125 162.46875 L 67.515625 169.886719 L 67.21875 170.332031 L 66.183594 172.707031 L 65.144531 172.261719 Z M 130.101562 113.210938 L 111.265625 106.832031 L 122.832031 71.96875 L 133.363281 75.527344 L 133.066406 78.644531 L 128.46875 77.160156 C 127.875 76.863281 126.984375 77.011719 126.394531 77.308594 C 125.800781 77.605469 125.355469 78.199219 125.058594 78.941406 L 119.71875 94.816406 C 119.421875 95.410156 119.570312 96.300781 119.867188 96.890625 C 120.164062 97.484375 120.757812 97.929688 121.5 98.226562 L 131.285156 101.492188 L 130.398438 112.46875 Z M 131.730469 95.707031 L 125.949219 93.777344 L 129.507812 83.242188 L 132.621094 84.28125 Z M 135.882812 113.210938 L 136.773438 103.125 L 136.921875 102.085938 L 137.070312 100.304688 L 137.367188 97.484375 L 137.960938 90.511719 L 138.257812 86.0625 L 138.554688 83.09375 L 138.851562 80.277344 L 139.144531 77.160156 L 139.441406 74.191406 L 139.738281 71.375 L 140.332031 63.660156 L 191.050781 44.964844 L 241.769531 63.660156 L 242.363281 70.929688 L 242.660156 74.042969 L 242.808594 76.714844 L 243.105469 79.832031 L 243.402344 82.648438 L 243.699219 85.46875 L 244.441406 94.222656 L 244.589844 96.890625 L 244.886719 99.859375 L 245.035156 102.679688 L 245.332031 105.644531 L 246.070312 115.4375 L 247.851562 138.582031 L 233.167969 147.484375 L 230.5 149.117188 L 227.980469 150.601562 L 191.050781 172.855469 L 154.273438 150.601562 L 151.160156 149.265625 L 148.339844 147.632812 L 133.808594 138.730469 Z M 257.195312 71.96875 L 267.722656 103.421875 L 250.519531 109.207031 L 249.925781 100.898438 L 258.527344 97.929688 C 259.269531 97.78125 259.863281 97.1875 260.160156 96.597656 C 260.457031 96.003906 260.605469 95.261719 260.308594 94.519531 L 254.96875 78.644531 C 254.820312 77.902344 254.226562 77.308594 253.636719 77.011719 C 253.042969 76.714844 252.300781 76.566406 251.558594 76.863281 L 248.148438 78.050781 L 247.851562 74.933594 Z M 248.445312 83.835938 L 250.519531 83.09375 L 254.078125 93.628906 L 249.335938 95.261719 Z M 248.445312 83.835938 " fill-opacity="1" fill-rule="nonzero"/></g><path fill="rgb(12.159729%, 15.689087%, 19.999695%)" d="M 162.28125 122.410156 L 161.09375 134.132812 L 160.796875 136.949219 L 160.5 139.621094 L 159.316406 150.304688 C 159.167969 151.492188 159.761719 152.527344 160.796875 153.121094 L 189.273438 168.550781 C 189.71875 168.699219 190.160156 168.847656 190.605469 168.847656 C 191.050781 168.847656 191.496094 168.699219 191.792969 168.699219 L 220.265625 153.269531 C 221.304688 152.675781 221.898438 151.640625 221.75 150.453125 L 220.5625 139.621094 L 220.265625 136.949219 L 219.96875 134.132812 L 218.785156 122.410156 L 232.132812 105.941406 L 234.355469 103.273438 L 237.765625 99.117188 L 238.359375 98.523438 C 238.804688 98.078125 238.953125 97.484375 238.953125 97.039062 C 238.953125 96.300781 238.804688 95.558594 238.359375 94.964844 L 238.210938 94.816406 L 233.316406 88.878906 L 231.390625 86.65625 L 229.460938 84.429688 L 215.375 67.367188 C 214.632812 66.476562 213.445312 66.179688 212.40625 66.476562 L 190.605469 73.003906 L 168.808594 66.476562 C 167.769531 66.179688 166.582031 66.476562 165.839844 67.367188 L 151.457031 84.726562 L 149.675781 86.953125 L 147.746094 89.324219 L 143.152344 94.964844 C 142.261719 96.003906 142.261719 97.484375 143.152344 98.523438 L 144.335938 100.007812 L 147.007812 103.273438 L 148.785156 105.496094 Z M 148.636719 96.742188 L 149.230469 96.152344 L 153.828125 90.660156 L 168.953125 72.265625 L 189.71875 78.496094 C 190.308594 78.644531 190.753906 78.644531 191.347656 78.496094 L 212.257812 72.265625 L 225.308594 87.992188 L 230.351562 94.074219 L 232.429688 96.597656 L 231.539062 97.632812 L 229.460938 100.304688 L 213.742188 119.742188 C 213.296875 120.335938 213 121.074219 213.148438 121.816406 L 214.484375 134.132812 L 214.78125 136.949219 L 215.078125 139.621094 L 216.113281 149.117188 L 190.605469 162.914062 L 165.097656 149.117188 L 166.136719 139.621094 L 166.433594 136.949219 L 166.730469 134.132812 L 168.066406 121.964844 C 168.214844 121.222656 167.917969 120.480469 167.472656 119.890625 L 150.714844 99.414062 L 148.785156 97.039062 Z M 148.636719 96.742188 " fill-opacity="1" fill-rule="nonzero"/><path fill="rgb(12.159729%, 15.689087%, 19.999695%)" d="M 181.117188 149.5625 L 189.570312 152.230469 C 189.867188 152.378906 190.160156 152.378906 190.457031 152.378906 C 190.753906 152.378906 190.902344 152.230469 191.199219 152.230469 C 191.199219 152.230469 191.347656 152.230469 191.347656 152.230469 L 199.800781 149.5625 C 201.285156 148.96875 202.027344 147.484375 201.582031 146 C 200.988281 144.515625 199.503906 143.777344 198.023438 144.21875 L 193.277344 145.703125 L 193.277344 121.222656 L 197.875 116.625 C 198.910156 115.4375 198.910156 113.65625 197.875 112.617188 L 192.535156 107.277344 C 191.347656 106.238281 189.570312 106.238281 188.53125 107.277344 L 183.191406 112.617188 C 182.152344 113.804688 182.152344 115.585938 183.191406 116.625 L 187.640625 121.074219 L 187.640625 145.703125 L 182.894531 144.21875 C 181.414062 143.777344 179.78125 144.515625 179.335938 146 C 178.890625 147.484375 179.632812 149.117188 181.117188 149.5625 Z M 191.941406 114.695312 L 190.457031 116.179688 L 189.273438 114.992188 L 188.976562 114.695312 L 190.457031 113.210938 Z M 191.941406 114.695312 " fill-opacity="1" fill-rule="nonzero"/><path fill="rgb(12.159729%, 15.689087%, 19.999695%)" d="M 166.136719 100.007812 C 166.582031 100.007812 167.027344 99.859375 167.472656 99.5625 L 177.261719 94.222656 C 178.59375 93.628906 179.039062 91.847656 178.296875 90.511719 C 177.554688 89.175781 175.925781 88.730469 174.589844 89.472656 L 164.800781 94.816406 C 163.46875 95.410156 163.023438 97.1875 163.765625 98.523438 C 164.210938 99.414062 165.097656 100.007812 166.136719 100.007812 Z M 166.136719 100.007812 " fill-opacity="1" fill-rule="nonzero"/><path fill="rgb(12.159729%, 15.689087%, 19.999695%)" d="M 204.25 94.964844 L 214.1875 100.007812 C 214.632812 100.15625 215.078125 100.304688 215.523438 100.304688 C 216.558594 100.304688 217.597656 99.710938 217.894531 98.820312 C 218.636719 97.484375 218.042969 95.855469 216.707031 95.113281 L 206.773438 90.066406 C 205.4375 89.324219 203.804688 89.917969 203.0625 91.253906 C 202.324219 92.589844 202.914062 94.222656 204.25 94.964844 Z M 204.25 94.964844 " fill-opacity="1" fill-rule="nonzero"/><g clip-path="url(#clip-1)"><path fill="rgb(39.99939%, 98.81897%, 94.509888%)" d="M 217.828125 187.5 C 216.144531 187.5 214.777344 188.605469 214.304688 190.128906 L 212.046875 190.128906 C 206 190.128906 201.003906 194.757812 200.53125 200.753906 C 198.851562 202.066406 196.746094 202.804688 194.539062 202.75 C 192.753906 201.488281 190.703125 200.804688 188.492188 200.648438 C 188.125 200.648438 187.707031 200.648438 187.335938 200.648438 C 185.128906 200.753906 183.078125 201.488281 181.292969 202.75 C 179.082031 202.804688 176.980469 202.066406 175.300781 200.753906 C 174.71875 194.757812 169.726562 190.128906 163.679688 190.128906 L 161.421875 190.128906 C 160.949219 188.605469 159.582031 187.5 157.898438 187.5 C 155.847656 187.5 154.21875 189.128906 154.21875 191.179688 C 154.21875 193.234375 155.847656 194.863281 157.898438 194.863281 C 159.582031 194.863281 160.949219 193.757812 161.421875 192.234375 L 163.679688 192.234375 C 168.78125 192.234375 172.933594 196.230469 173.144531 201.332031 C 173.144531 201.648438 173.300781 201.910156 173.511719 202.066406 C 175.773438 204.015625 178.664062 205.011719 181.605469 204.855469 C 181.765625 204.855469 181.921875 204.804688 182.027344 204.75 C 182.082031 204.699219 182.132812 204.699219 182.1875 204.644531 C 183.65625 203.539062 185.445312 202.855469 187.285156 202.804688 C 187.285156 202.804688 187.335938 202.804688 187.335938 202.804688 C 187.652344 202.804688 187.96875 202.804688 188.285156 202.804688 C 188.285156 202.804688 188.285156 202.804688 188.335938 202.804688 C 190.230469 202.910156 192.015625 203.539062 193.488281 204.644531 C 193.59375 204.75 193.75 204.804688 193.910156 204.855469 C 193.960938 204.855469 194.015625 204.855469 194.066406 204.855469 C 194.277344 204.855469 194.488281 204.855469 194.644531 204.855469 C 197.429688 204.855469 200.058594 203.855469 202.164062 202.066406 C 202.425781 201.859375 202.53125 201.542969 202.53125 201.226562 C 202.792969 196.175781 206.894531 192.285156 211.992188 192.285156 L 214.253906 192.285156 C 214.726562 193.8125 216.09375 194.914062 217.777344 194.914062 C 219.824219 194.914062 221.457031 193.285156 221.457031 191.234375 C 221.457031 189.183594 219.878906 187.5 217.828125 187.5 Z M 157.898438 192.757812 C 157.003906 192.757812 156.320312 192.074219 156.320312 191.179688 C 156.320312 190.289062 157.003906 189.605469 157.898438 189.605469 C 158.792969 189.605469 159.476562 190.289062 159.476562 191.179688 C 159.476562 192.074219 158.792969 192.757812 157.898438 192.757812 Z M 217.828125 192.757812 C 216.933594 192.757812 216.25 192.074219 216.25 191.179688 C 216.25 190.289062 216.933594 189.605469 217.828125 189.605469 C 218.722656 189.605469 219.40625 190.289062 219.40625 191.179688 C 219.40625 192.074219 218.722656 192.757812 217.828125 192.757812 Z M 217.828125 192.757812 " fill-opacity="1" fill-rule="nonzero"/></g><path fill="rgb(39.99939%, 98.81897%, 94.509888%)" d="M 198.429688 216.898438 C 198.957031 215.792969 199.269531 214.53125 199.375 213.269531 L 209.050781 213.269531 C 209.523438 214.796875 210.890625 215.898438 212.570312 215.898438 C 214.621094 215.898438 216.25 214.269531 216.25 212.21875 C 216.25 210.167969 214.621094 208.535156 212.570312 208.535156 C 210.890625 208.535156 209.523438 209.640625 209.050781 211.167969 L 197.324219 211.167969 L 197.324219 212.21875 C 197.324219 214.058594 196.800781 215.792969 195.90625 217.214844 C 196.117188 217.265625 196.328125 217.371094 196.484375 217.476562 C 197.117188 217.160156 197.746094 217.003906 198.429688 216.898438 Z M 212.570312 210.640625 C 213.464844 210.640625 214.148438 211.324219 214.148438 212.21875 C 214.148438 213.113281 213.464844 213.796875 212.570312 213.796875 C 211.675781 213.796875 210.992188 213.113281 210.992188 212.21875 C 210.992188 211.324219 211.675781 210.640625 212.570312 210.640625 Z M 212.570312 210.640625 " fill-opacity="1" fill-rule="nonzero"/><g clip-path="url(#clip-2)"><path fill="rgb(39.99939%, 98.81897%, 94.509888%)" d="M 217.828125 229.574219 C 216.144531 229.574219 214.777344 230.679688 214.304688 232.203125 L 212.046875 232.203125 C 211.625 232.203125 211.152344 232.152344 210.730469 232.097656 L 210.625 234.203125 C 211.097656 234.253906 211.519531 234.308594 211.992188 234.308594 L 214.253906 234.308594 C 214.726562 235.832031 216.09375 236.9375 217.777344 236.9375 C 219.824219 236.9375 221.457031 235.304688 221.457031 233.253906 C 221.457031 231.203125 219.878906 229.574219 217.828125 229.574219 Z M 217.828125 234.832031 C 216.933594 234.832031 216.25 234.148438 216.25 233.253906 C 216.25 232.359375 216.933594 231.675781 217.828125 231.675781 C 218.722656 231.675781 219.40625 232.359375 219.40625 233.253906 C 219.40625 234.148438 218.722656 234.832031 217.828125 234.832031 Z M 217.828125 234.832031 " fill-opacity="1" fill-rule="nonzero"/></g><g clip-path="url(#clip-3)"><path fill="rgb(39.99939%, 98.81897%, 94.509888%)" d="M 193.699219 218.949219 C 193.226562 218.949219 192.804688 219.003906 192.382812 219.160156 L 192.382812 216.425781 C 192.382812 214.113281 190.492188 212.21875 188.179688 212.21875 C 185.867188 212.21875 183.972656 214.113281 183.972656 216.425781 L 183.972656 230.886719 L 182.660156 229.3125 C 181.871094 228.3125 180.660156 227.734375 179.398438 227.734375 C 178.402344 227.734375 177.453125 228.101562 176.71875 228.730469 C 174.984375 230.203125 174.71875 232.835938 176.191406 234.621094 L 184.128906 244.40625 L 184.289062 245.246094 C 184.917969 249.296875 188.335938 252.242188 192.4375 252.242188 L 199.902344 252.242188 C 204.371094 252.242188 207.996094 248.71875 208.15625 244.246094 L 208.890625 226.472656 C 208.945312 225.3125 208.523438 224.210938 207.734375 223.421875 C 206.945312 222.578125 205.894531 222.15625 204.738281 222.15625 C 204.265625 222.15625 203.792969 222.261719 203.371094 222.421875 C 203.003906 220.476562 201.320312 219.003906 199.324219 219.003906 L 199.269531 219.003906 C 198.21875 219.003906 197.273438 219.371094 196.539062 220.054688 C 195.800781 219.421875 194.855469 219.003906 193.804688 219.003906 L 193.699219 219.003906 Z M 195.800781 223.105469 L 195.800781 229.574219 L 197.167969 229.46875 L 197.167969 223.105469 C 197.167969 221.949219 198.0625 221.054688 199.21875 221.054688 L 199.269531 221.054688 C 200.375 221.054688 201.320312 221.949219 201.320312 223.105469 L 201.320312 229.207031 L 202.6875 229.101562 L 202.6875 226.261719 C 202.6875 225.101562 203.582031 224.210938 204.738281 224.210938 C 205.894531 224.210938 206.839844 225.15625 206.789062 226.3125 L 206.050781 244.089844 C 205.945312 247.402344 203.214844 250.085938 199.902344 250.085938 L 192.382812 250.085938 C 189.335938 250.085938 186.757812 247.875 186.285156 244.878906 L 186.074219 243.457031 L 177.824219 233.253906 C 177.085938 232.359375 177.242188 231.046875 178.085938 230.308594 C 178.453125 229.996094 178.980469 229.835938 179.453125 229.835938 C 180.082031 229.835938 180.660156 230.097656 181.082031 230.625 L 186.128906 236.832031 L 186.128906 216.425781 C 186.128906 215.269531 187.074219 214.320312 188.230469 214.320312 C 189.386719 214.320312 190.332031 215.269531 190.332031 216.425781 L 190.332031 229.941406 L 191.699219 229.835938 L 191.699219 223.105469 C 191.699219 221.949219 192.59375 221.054688 193.75 221.054688 L 193.804688 221.054688 C 194.855469 221.054688 195.800781 221.949219 195.800781 223.105469 Z M 195.800781 223.105469 " fill-opacity="1" fill-rule="nonzero"/></g><path fill="rgb(39.99939%, 98.81897%, 94.509888%)" d="M 187.863281 204.855469 C 183.816406 204.855469 180.503906 208.167969 180.503906 212.21875 C 180.503906 213.796875 181.027344 215.269531 181.871094 216.476562 L 181.871094 216.371094 C 181.871094 215.214844 182.1875 214.164062 182.710938 213.269531 C 182.660156 212.902344 182.605469 212.585938 182.605469 212.164062 C 182.605469 209.273438 184.972656 206.90625 187.863281 206.90625 C 190.753906 206.90625 193.121094 209.273438 193.121094 212.164062 C 193.121094 212.269531 193.121094 212.375 193.121094 212.480469 C 193.804688 213.375 194.277344 214.425781 194.433594 215.53125 C 194.960938 214.53125 195.277344 213.375 195.277344 212.164062 C 195.222656 208.167969 191.910156 204.855469 187.863281 204.855469 Z M 187.863281 204.855469 " fill-opacity="1" fill-rule="nonzero"/><g clip-path="url(#clip-4)"><path fill="rgb(39.99939%, 98.81897%, 94.509888%)" d="M 173.144531 223.261719 C 172.878906 228.3125 168.78125 232.203125 163.679688 232.203125 L 161.421875 232.203125 C 160.949219 230.679688 159.582031 229.574219 157.898438 229.574219 C 155.847656 229.574219 154.21875 231.203125 154.21875 233.253906 C 154.21875 235.304688 155.847656 236.9375 157.898438 236.9375 C 159.582031 236.9375 160.949219 235.832031 161.421875 234.308594 L 163.679688 234.308594 C 169.726562 234.308594 174.71875 229.679688 175.195312 223.683594 C 176.875 222.367188 178.980469 221.632812 181.1875 221.683594 C 181.34375 221.789062 181.503906 221.894531 181.660156 222 C 181.660156 222 181.710938 222 181.710938 222.054688 C 181.765625 222.105469 181.816406 222.105469 181.871094 222.15625 L 181.871094 219.582031 C 179.765625 217.84375 178.402344 215.214844 178.402344 212.269531 L 178.402344 211.21875 L 166.675781 211.21875 C 166.203125 209.695312 164.835938 208.589844 163.15625 208.589844 C 161.105469 208.589844 159.476562 210.21875 159.476562 212.269531 C 159.476562 214.320312 161.105469 215.953125 163.15625 215.953125 C 164.835938 215.953125 166.203125 214.847656 166.675781 213.324219 L 176.351562 213.324219 C 176.5625 215.792969 177.558594 218.003906 179.082031 219.792969 C 177.035156 220.160156 175.089844 221.054688 173.460938 222.421875 C 173.25 222.578125 173.144531 222.894531 173.144531 223.261719 Z M 157.898438 234.832031 C 157.003906 234.832031 156.320312 234.148438 156.320312 233.253906 C 156.320312 232.359375 157.003906 231.675781 157.898438 231.675781 C 158.792969 231.675781 159.476562 232.359375 159.476562 233.253906 C 159.476562 234.148438 158.792969 234.832031 157.898438 234.832031 Z M 163.15625 213.796875 C 162.261719 213.796875 161.578125 213.113281 161.578125 212.21875 C 161.578125 211.324219 162.261719 210.640625 163.15625 210.640625 C 164.050781 210.640625 164.730469 211.324219 164.730469 212.21875 C 164.730469 213.113281 164.050781 213.796875 163.15625 213.796875 Z M 163.15625 213.796875 " fill-opacity="1" fill-rule="nonzero"/></g></svg>